{"title":"The Hunger Games 2012 CAM XViD DTRG","uid":7131887,"size":1480112909,"categoryP":"video","categoryS":"movies","magnet":"?xt=urn:btih:a2723d3734c29b5a79412591e2182e055c8be03f&amp;dn=The+Hunger+Games+2012+CAM+XViD+DTRG&amp;tr=udp%3A%2F%2Ftracker.openbittorrent.com%3A80&amp;tr=udp%3A%2F%2Fopen.demonii.com%3A1337&amp;tr=udp%3A%2F%2Ftracker.coppersurfer.tk%3A6969&amp;tr=udp%3A%2F%2Fexodus.desync.com%3A6969","seeders":0,"leechers":0,"uploader":".BONE.","files":3,"time":1332733899,"description":"Set in a future where the Capitol selects a boy and girl from the twelve districts to fight to the death on live television, Katniss Everdeen volunteers to take her younger sister's place for the latest match.\n\nFormat : AVI\nFormat/Info : Audio Video Interleave\nFile size : 1.37 GiB\nDuration : 2h 7mn\nOverall bit rate : 1 539 Kbps\nWriting library : VirtualDub build 32842/release\n\nVideo\nID : 0\nFormat : MPEG-4 Visual\nFormat profile : Advanced Simple@L5\nFormat settings, BVOP : 2\nFormat settings, QPel : No\nFormat settings, GMC : No warppoints\nFormat settings, Matrix : Default (H.263)\nMuxing mode : Packed bitstream\nCodec ID : XVID\nCodec ID/Hint : XviD\nDuration : 2h 7mn\nBit rate : 1 401 Kbps\nWidth : 642 pixels\nHeight : 258 pixels\nDisplay aspect ratio : 2.488\nFrame rate : 25.000 fps\nColor space : YUV\nChroma subsampling : 4:2:0\nBit depth : 8 bits\nScan type : Progressive\nCompression mode : Lossy\nBits/(Pixel*Frame) : 0.338\nStream size : 1.25 GiB (91%)\nWriting library : XviD 64\n\nAudio\nID : 1\nFormat : MPEG Audio\nFormat version : Version 1\nFormat profile : Layer 3\nMode : Joint stereo\nMode extension : MS Stereo\nCodec ID : 55\nCodec ID/Hint : MP3\nDuration : 2h 7mn\nBit rate mode : Constant\nBit rate : 128 Kbps\nChannel(s) : 2 channels\nSampling rate : 44.1 KHz\nCompression mode : Lossy\nStream size : 117 MiB (8%)\nAlignment : Split accross interleaves\nInterleave, duration : 40 ms (1.00 video frame)\nInterleave, preload duration : 500 ms\n\nSource Used\n\nVideo............... Golodnie.igry.2012.D.CAMRip.1400mb....Thanks\n\nAudio .................INSPiRAL..................................Thanks\n\nSo so video but its watchable imo but check out the sample provided\n\nChanged the rgb slightly and added more saturation ,slight sharpen ,slight levels adjusted\n\nEnjoy\n &lt;a href=&quot;\nhttp://www.aedes.us/f/M3RtW.png&quot; rel=&quot;nofollow&quot; target=&quot;_NEW&quot;&gt;\nhttp://www.aedes.us/f/M3RtW.png&lt;/a&gt; &lt;a href=&quot;\nhttp://www.aedes.us/f/kLrO.png&quot; rel=&quot;nofollow&quot; target=&quot;_NEW&quot;&gt;\nhttp://www.aedes.us/f/kLrO.png&lt;/a&gt; &lt;a href=&quot;\nhttp://www.aedes.us/f/I5AFg.png&quot; rel=&quot;nofollow&quot; target=&quot;_NEW&quot;&gt;\nhttp://www.aedes.us/f/I5AFg.png&lt;/a&gt;","torrent":{"xt":"urn:btih:a2723d3734c29b5a79412591e2182e055c8be03f","amp;dn":"The+Hunger+Games+2012+CAM+XViD+DTRG","amp;tr":["udp%3A%2F%2Ftracker.openbittorrent.com%3A80","udp%3A%2F%2Fopen.demonii.com%3A1337","udp%3A%2F%2Ftracker.coppersurfer.tk%3A6969","udp%3A%2F%2Fexodus.desync.com%3A6969"],"infoHash":"a2723d3734c29b5a79412591e2182e055c8be03f","infoHashBuffer":{"type":"Buffer","data":[162,114,61,55,52,194,155,90,121,65,37,145,226,24,46,5,92,139,224,63]},"announce":[],"urlList":[]}}